<mxfile host="app.diagrams.net" agent="Mozilla/5.0 (Windows NT 10.0; Win64; x64) AppleWebKit/537.36 (KHTML, like Gecko) Chrome/135.0.0.0 Safari/537.36 OPR/120.0.0.0" version="28.0.7">
  <diagram id="role_mgmt" name="Role Management">
    <mxGraphModel dx="1164" dy="673" grid="1" gridSize="10" guides="1" tooltips="1" connect="1" arrows="1" fold="1" page="1" pageScale="1" pageWidth="827" pageHeight="1169" math="0" shadow="0">
      <root>
        <mxCell id="0" />
        <mxCell id="1" parent="0" />
        <mxCell id="101" style="edgeStyle=orthogonalEdgeStyle;endArrow=block;html=1;" parent="1" source="gneJIkNCi1ElT4z5fUmu-126" target="4" edge="1">
          <mxGeometry relative="1" as="geometry">
            <Array as="points">
              <mxPoint x="400" y="220" />
            </Array>
          </mxGeometry>
        </mxCell>
        <mxCell id="gneJIkNCi1ElT4z5fUmu-120" value="administrateur" style="swimlane;whiteSpace=wrap;html=1;" vertex="1" parent="1">
          <mxGeometry y="50" width="110" height="1110" as="geometry" />
        </mxCell>
        <mxCell id="yhiFasKE37oo2hA5tZNI-120" value="" style="ellipse;fillColor=strokeColor;html=1;" parent="gneJIkNCi1ElT4z5fUmu-120" vertex="1">
          <mxGeometry x="30" y="30" width="30" height="30" as="geometry" />
        </mxCell>
        <mxCell id="gneJIkNCi1ElT4z5fUmu-126" value="Admin ouvre le module de gestion des rôles" style="rounded=1;whiteSpace=wrap;html=1;" vertex="1" parent="gneJIkNCi1ElT4z5fUmu-120">
          <mxGeometry x="5" y="145" width="100" height="50" as="geometry" />
        </mxCell>
        <mxCell id="gneJIkNCi1ElT4z5fUmu-127" style="edgeStyle=orthogonalEdgeStyle;rounded=0;orthogonalLoop=1;jettySize=auto;html=1;exitX=0.5;exitY=1;exitDx=0;exitDy=0;" edge="1" parent="gneJIkNCi1ElT4z5fUmu-120" source="3" target="gneJIkNCi1ElT4z5fUmu-126">
          <mxGeometry relative="1" as="geometry" />
        </mxCell>
        <mxCell id="3" value="s&#39;authentifier" style="rounded=1;whiteSpace=wrap;html=1;" parent="gneJIkNCi1ElT4z5fUmu-120" vertex="1">
          <mxGeometry x="15" y="90" width="80" height="30" as="geometry" />
        </mxCell>
        <mxCell id="100" style="edgeStyle=orthogonalEdgeStyle;endArrow=block;html=1;exitX=0.5;exitY=1;exitDx=0;exitDy=0;" parent="gneJIkNCi1ElT4z5fUmu-120" source="yhiFasKE37oo2hA5tZNI-120" target="3" edge="1">
          <mxGeometry relative="1" as="geometry" />
        </mxCell>
        <mxCell id="gneJIkNCi1ElT4z5fUmu-121" value="system" style="swimlane;whiteSpace=wrap;html=1;" vertex="1" parent="1">
          <mxGeometry x="110" y="50" width="570" height="1110" as="geometry" />
        </mxCell>
        <mxCell id="nHjn4-P2pNOBENWCC3nM-151" style="edgeStyle=orthogonalEdgeStyle;rounded=1;orthogonalLoop=1;jettySize=auto;html=1;exitX=0.5;exitY=1;exitDx=0;exitDy=0;entryX=0.5;entryY=0;entryDx=0;entryDy=0;curved=0;" parent="gneJIkNCi1ElT4z5fUmu-121" source="4" target="nHjn4-P2pNOBENWCC3nM-147" edge="1">
          <mxGeometry relative="1" as="geometry">
            <Array as="points">
              <mxPoint x="290" y="300" />
              <mxPoint x="314" y="300" />
            </Array>
          </mxGeometry>
        </mxCell>
        <mxCell id="nHjn4-P2pNOBENWCC3nM-160" value="restructurer les rôles" style="edgeLabel;html=1;align=center;verticalAlign=middle;resizable=0;points=[];" parent="nHjn4-P2pNOBENWCC3nM-151" vertex="1" connectable="0">
          <mxGeometry x="0.0141" y="1" relative="1" as="geometry">
            <mxPoint as="offset" />
          </mxGeometry>
        </mxCell>
        <mxCell id="4" value="Choix de&amp;nbsp;&lt;div&gt;l&#39;action&lt;/div&gt;" style="rhombus;whiteSpace=wrap;html=1;perimeter=ellipsePerimeter;" parent="gneJIkNCi1ElT4z5fUmu-121" vertex="1">
          <mxGeometry x="250" y="195" width="80" height="80" as="geometry" />
        </mxCell>
        <mxCell id="yhiFasKE37oo2hA5tZNI-137" style="edgeStyle=orthogonalEdgeStyle;rounded=1;orthogonalLoop=1;jettySize=auto;html=1;exitX=0.5;exitY=1;exitDx=0;exitDy=0;curved=0;" parent="gneJIkNCi1ElT4z5fUmu-121" source="5" target="8" edge="1">
          <mxGeometry relative="1" as="geometry">
            <mxPoint x="35" y="605" as="targetPoint" />
          </mxGeometry>
        </mxCell>
        <mxCell id="5" value="choisir bénévole" style="rounded=1;whiteSpace=wrap;html=1;" parent="gneJIkNCi1ElT4z5fUmu-121" vertex="1">
          <mxGeometry x="10" y="485" width="70" height="60" as="geometry" />
        </mxCell>
        <mxCell id="10" value="vérifier conformité" style="rounded=1;whiteSpace=wrap;html=1;" parent="gneJIkNCi1ElT4z5fUmu-121" vertex="1">
          <mxGeometry x="214" y="513.75" width="80" height="60" as="geometry" />
        </mxCell>
        <mxCell id="13" value="Confirmer mise à jour" style="rounded=1;whiteSpace=wrap;html=1;" parent="gneJIkNCi1ElT4z5fUmu-121" vertex="1">
          <mxGeometry x="214" y="880" width="80" height="60" as="geometry" />
        </mxCell>
        <mxCell id="14" value="Sélectionner responsable" style="rounded=1;whiteSpace=wrap;html=1;" parent="gneJIkNCi1ElT4z5fUmu-121" vertex="1">
          <mxGeometry x="485" y="266.25" width="75" height="60" as="geometry" />
        </mxCell>
        <mxCell id="yhiFasKE37oo2hA5tZNI-140" style="edgeStyle=orthogonalEdgeStyle;rounded=1;orthogonalLoop=1;jettySize=auto;html=1;exitX=0.5;exitY=1;exitDx=0;exitDy=0;entryX=0.5;entryY=0;entryDx=0;entryDy=0;curved=0;" parent="gneJIkNCi1ElT4z5fUmu-121" source="15" target="18" edge="1">
          <mxGeometry relative="1" as="geometry" />
        </mxCell>
        <mxCell id="15" value="sélectionner role" style="rounded=1;whiteSpace=wrap;html=1;" parent="gneJIkNCi1ElT4z5fUmu-121" vertex="1">
          <mxGeometry x="490" y="345" width="70" height="60" as="geometry" />
        </mxCell>
        <mxCell id="18" value="Supprimer rôle" style="rounded=1;whiteSpace=wrap;html=1;" parent="gneJIkNCi1ElT4z5fUmu-121" vertex="1">
          <mxGeometry x="490" y="445" width="70" height="60" as="geometry" />
        </mxCell>
        <mxCell id="19" value="Confirmer suppression" style="rounded=1;whiteSpace=wrap;html=1;" parent="gneJIkNCi1ElT4z5fUmu-121" vertex="1">
          <mxGeometry x="485" y="880" width="80" height="60" as="geometry" />
        </mxCell>
        <mxCell id="102" style="edgeStyle=orthogonalEdgeStyle;endArrow=block;html=1;entryX=0.5;entryY=0;entryDx=0;entryDy=0;" parent="gneJIkNCi1ElT4z5fUmu-121" source="4" target="yhiFasKE37oo2hA5tZNI-153" edge="1">
          <mxGeometry relative="1" as="geometry" />
        </mxCell>
        <mxCell id="yhiFasKE37oo2hA5tZNI-125" value="attribuer role à membre" style="edgeLabel;html=1;align=center;verticalAlign=middle;resizable=0;points=[];" parent="102" vertex="1" connectable="0">
          <mxGeometry x="-0.2272" y="3" relative="1" as="geometry">
            <mxPoint as="offset" />
          </mxGeometry>
        </mxCell>
        <mxCell id="108" value="&lt;span style=&quot;color: rgb(0, 0, 0); font-family: Helvetica; font-size: 12px; font-style: normal; font-variant-ligatures: normal; font-variant-caps: normal; font-weight: 400; letter-spacing: normal; orphans: 2; text-align: center; text-indent: 0px; text-transform: none; widows: 2; word-spacing: 0px; -webkit-text-stroke-width: 0px; white-space: normal; background-color: rgb(236, 236, 236); text-decoration-thickness: initial; text-decoration-style: initial; text-decoration-color: initial; float: none; display: inline !important;&quot;&gt;choisir nouveau rôle&lt;/span&gt;" style="edgeStyle=orthogonalEdgeStyle;endArrow=block;html=1;exitX=0;exitY=0.5;exitDx=0;exitDy=0;" parent="gneJIkNCi1ElT4z5fUmu-121" source="nHjn4-P2pNOBENWCC3nM-147" target="10" edge="1">
          <mxGeometry relative="1" as="geometry">
            <mxPoint x="254" y="491.25" as="sourcePoint" />
            <mxPoint x="254.0588235294117" y="511.25" as="targetPoint" />
          </mxGeometry>
        </mxCell>
        <mxCell id="110" style="edgeStyle=orthogonalEdgeStyle;endArrow=block;html=1;" parent="gneJIkNCi1ElT4z5fUmu-121" target="13" edge="1">
          <mxGeometry relative="1" as="geometry">
            <mxPoint x="254" y="571.25" as="sourcePoint" />
            <mxPoint x="254" y="606.25" as="targetPoint" />
          </mxGeometry>
        </mxCell>
        <mxCell id="113" style="edgeStyle=orthogonalEdgeStyle;endArrow=block;html=1;" parent="gneJIkNCi1ElT4z5fUmu-121" source="4" target="14" edge="1">
          <mxGeometry relative="1" as="geometry">
            <Array as="points">
              <mxPoint x="540" y="235" />
            </Array>
          </mxGeometry>
        </mxCell>
        <mxCell id="yhiFasKE37oo2hA5tZNI-126" value="limoger responsable(traitement unitaire)" style="edgeLabel;html=1;align=center;verticalAlign=middle;resizable=0;points=[];" parent="113" vertex="1" connectable="0">
          <mxGeometry x="-0.3977" relative="1" as="geometry">
            <mxPoint x="37" y="-15" as="offset" />
          </mxGeometry>
        </mxCell>
        <mxCell id="114" style="edgeStyle=orthogonalEdgeStyle;endArrow=block;html=1;" parent="gneJIkNCi1ElT4z5fUmu-121" source="14" target="15" edge="1">
          <mxGeometry relative="1" as="geometry">
            <Array as="points">
              <mxPoint x="550" y="325" />
              <mxPoint x="550" y="325" />
            </Array>
          </mxGeometry>
        </mxCell>
        <mxCell id="119" style="edgeStyle=orthogonalEdgeStyle;endArrow=block;html=1;" parent="gneJIkNCi1ElT4z5fUmu-121" source="18" target="19" edge="1">
          <mxGeometry relative="1" as="geometry" />
        </mxCell>
        <mxCell id="yhiFasKE37oo2hA5tZNI-123" value="" style="ellipse;html=1;shape=endState;fillColor=strokeColor;" parent="gneJIkNCi1ElT4z5fUmu-121" vertex="1">
          <mxGeometry x="460" y="740" width="30" height="30" as="geometry" />
        </mxCell>
        <mxCell id="yhiFasKE37oo2hA5tZNI-143" value="choisir membre" style="rounded=1;whiteSpace=wrap;html=1;" parent="gneJIkNCi1ElT4z5fUmu-121" vertex="1">
          <mxGeometry x="100" y="485" width="90" height="60" as="geometry" />
        </mxCell>
        <mxCell id="yhiFasKE37oo2hA5tZNI-146" value="Confirmer promotion &quot;nouveau bénévole&quot;" style="rounded=1;whiteSpace=wrap;html=1;" parent="gneJIkNCi1ElT4z5fUmu-121" vertex="1">
          <mxGeometry x="120" y="880" width="80" height="60" as="geometry" />
        </mxCell>
        <mxCell id="yhiFasKE37oo2hA5tZNI-147" style="edgeStyle=orthogonalEdgeStyle;endArrow=block;html=1;exitX=1;exitY=0.5;exitDx=0;exitDy=0;" parent="gneJIkNCi1ElT4z5fUmu-121" source="yhiFasKE37oo2hA5tZNI-153" target="yhiFasKE37oo2hA5tZNI-143" edge="1">
          <mxGeometry relative="1" as="geometry">
            <mxPoint x="180" y="525" as="sourcePoint" />
          </mxGeometry>
        </mxCell>
        <mxCell id="yhiFasKE37oo2hA5tZNI-156" value="ni bénévole,&lt;div&gt;&amp;nbsp;ni responsable&lt;/div&gt;" style="edgeLabel;html=1;align=center;verticalAlign=middle;resizable=0;points=[];" parent="yhiFasKE37oo2hA5tZNI-147" vertex="1" connectable="0">
          <mxGeometry x="0.236" y="1" relative="1" as="geometry">
            <mxPoint as="offset" />
          </mxGeometry>
        </mxCell>
        <mxCell id="yhiFasKE37oo2hA5tZNI-150" style="edgeStyle=orthogonalEdgeStyle;endArrow=block;html=1;" parent="gneJIkNCi1ElT4z5fUmu-121" source="yhiFasKE37oo2hA5tZNI-143" target="yhiFasKE37oo2hA5tZNI-146" edge="1">
          <mxGeometry relative="1" as="geometry">
            <mxPoint x="185" y="585" as="sourcePoint" />
          </mxGeometry>
        </mxCell>
        <mxCell id="yhiFasKE37oo2hA5tZNI-154" style="edgeStyle=orthogonalEdgeStyle;rounded=1;orthogonalLoop=1;jettySize=auto;html=1;exitX=0.5;exitY=1;exitDx=0;exitDy=0;curved=0;" parent="gneJIkNCi1ElT4z5fUmu-121" source="yhiFasKE37oo2hA5tZNI-153" target="5" edge="1">
          <mxGeometry relative="1" as="geometry" />
        </mxCell>
        <mxCell id="yhiFasKE37oo2hA5tZNI-155" value="bénévole" style="edgeLabel;html=1;align=center;verticalAlign=middle;resizable=0;points=[];" parent="yhiFasKE37oo2hA5tZNI-154" vertex="1" connectable="0">
          <mxGeometry x="-0.0112" relative="1" as="geometry">
            <mxPoint as="offset" />
          </mxGeometry>
        </mxCell>
        <mxCell id="yhiFasKE37oo2hA5tZNI-153" value="choisir type de membre" style="rhombus;whiteSpace=wrap;html=1;perimeter=ellipsePerimeter;" parent="gneJIkNCi1ElT4z5fUmu-121" vertex="1">
          <mxGeometry x="15" y="285" width="95" height="100" as="geometry" />
        </mxCell>
        <mxCell id="nHjn4-P2pNOBENWCC3nM-121" value="vérifier conformité" style="rounded=1;whiteSpace=wrap;html=1;" parent="gneJIkNCi1ElT4z5fUmu-121" vertex="1">
          <mxGeometry x="309" y="710" width="80" height="60" as="geometry" />
        </mxCell>
        <mxCell id="nHjn4-P2pNOBENWCC3nM-122" value="Confirmer mise à jour" style="rounded=1;whiteSpace=wrap;html=1;" parent="gneJIkNCi1ElT4z5fUmu-121" vertex="1">
          <mxGeometry x="309" y="880" width="80" height="60" as="geometry" />
        </mxCell>
        <mxCell id="nHjn4-P2pNOBENWCC3nM-123" value="&lt;span style=&quot;color: rgb(0, 0, 0); font-family: Helvetica; font-size: 12px; font-style: normal; font-variant-ligatures: normal; font-variant-caps: normal; font-weight: 400; letter-spacing: normal; orphans: 2; text-align: center; text-indent: 0px; text-transform: none; widows: 2; word-spacing: 0px; -webkit-text-stroke-width: 0px; white-space: normal; background-color: rgb(236, 236, 236); text-decoration-thickness: initial; text-decoration-style: initial; text-decoration-color: initial; float: none; display: inline !important;&quot;&gt;choisir modifier rôle&lt;/span&gt;" style="edgeStyle=orthogonalEdgeStyle;endArrow=block;html=1;exitX=0.5;exitY=1;exitDx=0;exitDy=0;entryX=0.5;entryY=0;entryDx=0;entryDy=0;" parent="gneJIkNCi1ElT4z5fUmu-121" source="nHjn4-P2pNOBENWCC3nM-147" target="nHjn4-P2pNOBENWCC3nM-152" edge="1">
          <mxGeometry relative="1" as="geometry">
            <mxPoint x="351.5" y="491.25" as="sourcePoint" />
          </mxGeometry>
        </mxCell>
        <mxCell id="nHjn4-P2pNOBENWCC3nM-124" style="edgeStyle=orthogonalEdgeStyle;endArrow=block;html=1;" parent="gneJIkNCi1ElT4z5fUmu-121" source="nHjn4-P2pNOBENWCC3nM-121" target="nHjn4-P2pNOBENWCC3nM-122" edge="1">
          <mxGeometry relative="1" as="geometry">
            <mxPoint x="351.5" y="766.25" as="sourcePoint" />
            <mxPoint x="351.5" y="786.25" as="targetPoint" />
          </mxGeometry>
        </mxCell>
        <mxCell id="nHjn4-P2pNOBENWCC3nM-156" style="edgeStyle=orthogonalEdgeStyle;rounded=0;orthogonalLoop=1;jettySize=auto;html=1;exitX=0.5;exitY=1;exitDx=0;exitDy=0;entryX=0.5;entryY=0;entryDx=0;entryDy=0;" parent="gneJIkNCi1ElT4z5fUmu-121" source="nHjn4-P2pNOBENWCC3nM-139" target="nHjn4-P2pNOBENWCC3nM-154" edge="1">
          <mxGeometry relative="1" as="geometry" />
        </mxCell>
        <mxCell id="nHjn4-P2pNOBENWCC3nM-139" value="sélectionner&amp;nbsp; rôle" style="rounded=1;whiteSpace=wrap;html=1;" parent="gneJIkNCi1ElT4z5fUmu-121" vertex="1">
          <mxGeometry x="370" y="460" width="80" height="38.75" as="geometry" />
        </mxCell>
        <mxCell id="nHjn4-P2pNOBENWCC3nM-140" value="Confirmer mise à jour" style="rounded=1;whiteSpace=wrap;html=1;" parent="gneJIkNCi1ElT4z5fUmu-121" vertex="1">
          <mxGeometry x="400" y="880" width="80" height="60" as="geometry" />
        </mxCell>
        <mxCell id="nHjn4-P2pNOBENWCC3nM-141" value="&lt;span style=&quot;color: rgb(0, 0, 0); font-family: Helvetica; font-size: 12px; font-style: normal; font-variant-ligatures: normal; font-variant-caps: normal; font-weight: 400; letter-spacing: normal; orphans: 2; text-align: center; text-indent: 0px; text-transform: none; widows: 2; word-spacing: 0px; -webkit-text-stroke-width: 0px; white-space: normal; background-color: rgb(236, 236, 236); text-decoration-thickness: initial; text-decoration-style: initial; text-decoration-color: initial; float: none; display: inline !important;&quot;&gt;choisir effacer rôle&lt;/span&gt;" style="edgeStyle=orthogonalEdgeStyle;endArrow=block;html=1;exitX=1;exitY=0.5;exitDx=0;exitDy=0;" parent="gneJIkNCi1ElT4z5fUmu-121" source="nHjn4-P2pNOBENWCC3nM-147" target="nHjn4-P2pNOBENWCC3nM-139" edge="1">
          <mxGeometry x="0.0023" relative="1" as="geometry">
            <mxPoint x="451.5" y="491.25" as="sourcePoint" />
            <mxPoint as="offset" />
          </mxGeometry>
        </mxCell>
        <mxCell id="nHjn4-P2pNOBENWCC3nM-147" value="crud &quot;gestion des rôles&quot;" style="rhombus;whiteSpace=wrap;html=1;perimeter=ellipsePerimeter;" parent="gneJIkNCi1ElT4z5fUmu-121" vertex="1">
          <mxGeometry x="269" y="326.25" width="90" height="90" as="geometry" />
        </mxCell>
        <mxCell id="nHjn4-P2pNOBENWCC3nM-153" style="edgeStyle=orthogonalEdgeStyle;rounded=0;orthogonalLoop=1;jettySize=auto;html=1;exitX=0.5;exitY=1;exitDx=0;exitDy=0;entryX=0.5;entryY=0;entryDx=0;entryDy=0;" parent="gneJIkNCi1ElT4z5fUmu-121" source="nHjn4-P2pNOBENWCC3nM-152" target="nHjn4-P2pNOBENWCC3nM-121" edge="1">
          <mxGeometry relative="1" as="geometry" />
        </mxCell>
        <mxCell id="nHjn4-P2pNOBENWCC3nM-152" value="sélectionner&amp;nbsp; rôle" style="rounded=1;whiteSpace=wrap;html=1;" parent="gneJIkNCi1ElT4z5fUmu-121" vertex="1">
          <mxGeometry x="309" y="513.75" width="80" height="60" as="geometry" />
        </mxCell>
        <mxCell id="nHjn4-P2pNOBENWCC3nM-157" value="" style="edgeStyle=orthogonalEdgeStyle;rounded=0;orthogonalLoop=1;jettySize=auto;html=1;" parent="gneJIkNCi1ElT4z5fUmu-121" source="nHjn4-P2pNOBENWCC3nM-154" target="nHjn4-P2pNOBENWCC3nM-140" edge="1">
          <mxGeometry relative="1" as="geometry" />
        </mxCell>
        <mxCell id="nHjn4-P2pNOBENWCC3nM-158" value="oui" style="edgeLabel;html=1;align=center;verticalAlign=middle;resizable=0;points=[];" parent="nHjn4-P2pNOBENWCC3nM-157" vertex="1" connectable="0">
          <mxGeometry x="-0.6281" y="-1" relative="1" as="geometry">
            <mxPoint as="offset" />
          </mxGeometry>
        </mxCell>
        <mxCell id="nHjn4-P2pNOBENWCC3nM-159" value="non" style="edgeStyle=orthogonalEdgeStyle;rounded=1;orthogonalLoop=1;jettySize=auto;html=1;exitX=1;exitY=0.5;exitDx=0;exitDy=0;curved=0;" parent="gneJIkNCi1ElT4z5fUmu-121" source="nHjn4-P2pNOBENWCC3nM-154" target="yhiFasKE37oo2hA5tZNI-123" edge="1">
          <mxGeometry x="-0.7544" relative="1" as="geometry">
            <Array as="points">
              <mxPoint x="480" y="640.25" />
            </Array>
            <mxPoint as="offset" />
            <mxPoint x="470" y="816.25" as="targetPoint" />
          </mxGeometry>
        </mxCell>
        <mxCell id="nHjn4-P2pNOBENWCC3nM-154" value="rôle sans responsable&lt;div&gt;?&lt;/div&gt;" style="rhombus;whiteSpace=wrap;html=1;perimeter=ellipsePerimeter;" parent="gneJIkNCi1ElT4z5fUmu-121" vertex="1">
          <mxGeometry x="370" y="595" width="90" height="90" as="geometry" />
        </mxCell>
        <mxCell id="8" value="Confirmer promotion&lt;div&gt;&quot;nouveau responsable&quot;&lt;/div&gt;" style="rounded=1;whiteSpace=wrap;html=1;" parent="gneJIkNCi1ElT4z5fUmu-121" vertex="1">
          <mxGeometry x="10" y="880" width="100" height="60" as="geometry" />
        </mxCell>
        <mxCell id="106" style="edgeStyle=orthogonalEdgeStyle;endArrow=block;html=1;" parent="gneJIkNCi1ElT4z5fUmu-121" source="8" edge="1">
          <mxGeometry relative="1" as="geometry">
            <Array as="points">
              <mxPoint x="60" y="1040" />
            </Array>
            <mxPoint x="33" y="960" as="sourcePoint" />
            <mxPoint x="603.5" y="1040" as="targetPoint" />
          </mxGeometry>
        </mxCell>
        <mxCell id="gneJIkNCi1ElT4z5fUmu-122" value="sql lite" style="swimlane;whiteSpace=wrap;html=1;" vertex="1" parent="1">
          <mxGeometry x="680" y="50" width="140" height="1110" as="geometry" />
        </mxCell>
        <mxCell id="yhiFasKE37oo2hA5tZNI-157" value="mettre à jour&amp;nbsp;&lt;div&gt;base de donnée&lt;/div&gt;" style="rounded=1;whiteSpace=wrap;html=1;" parent="gneJIkNCi1ElT4z5fUmu-122" vertex="1">
          <mxGeometry x="33.5" y="980" width="96.5" height="70" as="geometry" />
        </mxCell>
        <mxCell id="yhiFasKE37oo2hA5tZNI-158" value="" style="ellipse;html=1;shape=endState;fillColor=strokeColor;" parent="gneJIkNCi1ElT4z5fUmu-122" vertex="1">
          <mxGeometry x="55" y="1070" width="30" height="30" as="geometry" />
        </mxCell>
        <mxCell id="yhiFasKE37oo2hA5tZNI-159" style="edgeStyle=orthogonalEdgeStyle;rounded=1;orthogonalLoop=1;jettySize=auto;html=1;exitX=0.5;exitY=1;exitDx=0;exitDy=0;curved=0;entryX=0.5;entryY=0;entryDx=0;entryDy=0;" parent="gneJIkNCi1ElT4z5fUmu-122" source="yhiFasKE37oo2hA5tZNI-157" target="yhiFasKE37oo2hA5tZNI-158" edge="1">
          <mxGeometry relative="1" as="geometry" />
        </mxCell>
        <mxCell id="yhiFasKE37oo2hA5tZNI-151" style="edgeStyle=orthogonalEdgeStyle;endArrow=block;html=1;" parent="gneJIkNCi1ElT4z5fUmu-122" source="yhiFasKE37oo2hA5tZNI-146" edge="1">
          <mxGeometry relative="1" as="geometry">
            <mxPoint x="34" y="1030" as="targetPoint" />
            <Array as="points">
              <mxPoint x="-410" y="1030" />
            </Array>
          </mxGeometry>
        </mxCell>
        <mxCell id="nHjn4-P2pNOBENWCC3nM-125" style="edgeStyle=orthogonalEdgeStyle;endArrow=block;html=1;" parent="1" source="nHjn4-P2pNOBENWCC3nM-122" target="yhiFasKE37oo2hA5tZNI-157" edge="1">
          <mxGeometry relative="1" as="geometry">
            <mxPoint x="622.5" y="855" as="targetPoint" />
            <Array as="points">
              <mxPoint x="459" y="1060" />
            </Array>
          </mxGeometry>
        </mxCell>
        <mxCell id="nHjn4-P2pNOBENWCC3nM-143" style="edgeStyle=orthogonalEdgeStyle;endArrow=block;html=1;" parent="1" source="nHjn4-P2pNOBENWCC3nM-140" target="yhiFasKE37oo2hA5tZNI-157" edge="1">
          <mxGeometry relative="1" as="geometry">
            <mxPoint x="735" y="943.75" as="targetPoint" />
            <Array as="points">
              <mxPoint x="550" y="1050" />
            </Array>
          </mxGeometry>
        </mxCell>
        <mxCell id="120" style="edgeStyle=orthogonalEdgeStyle;endArrow=block;html=1;" parent="1" source="19" target="yhiFasKE37oo2hA5tZNI-157" edge="1">
          <mxGeometry relative="1" as="geometry">
            <Array as="points">
              <mxPoint x="635" y="1040" />
            </Array>
            <mxPoint x="880" y="735" as="targetPoint" />
          </mxGeometry>
        </mxCell>
        <mxCell id="112" style="edgeStyle=orthogonalEdgeStyle;endArrow=block;html=1;" parent="1" target="yhiFasKE37oo2hA5tZNI-157" edge="1" source="13">
          <mxGeometry relative="1" as="geometry">
            <mxPoint x="517.5" y="716.2500000000002" as="sourcePoint" />
            <mxPoint x="517.5" y="788.75" as="targetPoint" />
            <Array as="points">
              <mxPoint x="364" y="1070" />
            </Array>
          </mxGeometry>
        </mxCell>
      </root>
    </mxGraphModel>
  </diagram>
</mxfile>
